<?xml version="1.0"?>
<svg xmlns="http://www.w3.org/2000/svg" id="Layer_1" data-name="Layer 1" viewBox="0 0 1606 595.58">
  <defs>
    <style>.cls-1{fill:#eb3b5a;}.cls-2{fill:#4b6584;}</style>
  </defs>
  <title>Design7</title>
  <path class="cls-1" d="M268.73,697.33l4.75-32,14.39.92q10.38.74,11.91-9.54L327,473.09l-22.34-4.52,5-33.57,71.09,10.54,84.88,197.85.79.12L488.15,497l-25.89-5.05,5-33.57,96.36,14.29-4.75,32-14.39-.92q-9.6-.61-11.29,10.84L501,731.78l-46.21-6.85L367.91,524l-.79-.12L345,673.12l25.49,5-5,33.57Z" transform="translate(-158 -243.06)"/>
  <path class="cls-1" d="M843.42,487h26v42.32h53.1l-4,33.54H869.37v105q0,17.57,6.39,24.55t19.76,7q13.37,0,26.95-8.38l12,30.74q-20,14-50.71,14-18,0-30.34-4.59T835,721q-6-5.59-9.18-16.37t-3.59-17q-.4-6.19-.4-18.17V562.89H793.51l4-29.15q18.76-1.59,28.35-13.37T843.42,487Z" transform="translate(-158 -243.06)"/>
  <path class="cls-1" d="M1061.83,523.36q29.94,0,47.51,14.57t17.57,40.92q0,17.57-7.59,30.94a61.26,61.26,0,0,1-18.77,21,98.59,98.59,0,0,1-27.15,12.38q-26.75,8-60.29,8,1.2,21.17,13.18,34.14t36.73,13q24.75,0,49.51-17.57L1127.71,713q-8,7.19-26.95,14.77t-43.32,7.59q-48.72,0-71.47-26.95t-22.76-74.06q0-47.1,26-79.05T1061.83,523.36Zm-18.17,91.23A64.69,64.69,0,0,0,1070.62,603q12.37-9,12.38-21.36,0-24.35-24-24.35-22.36,0-34.34,17.77t-13.18,42.52A210.36,210.36,0,0,0,1043.67,614.59Z" transform="translate(-158 -243.06)"/>
  <path class="cls-1" d="M1698.12,523.36q29.94,0,47.51,14.57t17.57,40.92q0,17.57-7.59,30.94a61.26,61.26,0,0,1-18.77,21,98.59,98.59,0,0,1-27.15,12.38q-26.75,8-60.29,8,1.2,21.17,13.18,34.14t36.73,13q24.75,0,49.51-17.57L1764,713q-8,7.19-26.95,14.77t-43.32,7.59q-48.72,0-71.47-26.95t-22.76-74.06q0-47.1,26-79.05T1698.12,523.36ZM1680,614.59A64.69,64.69,0,0,0,1706.91,603q12.37-9,12.38-21.36,0-24.35-24-24.35-22.36,0-34.34,17.77t-13.18,42.52A210.35,210.35,0,0,0,1680,614.59Z" transform="translate(-158 -243.06)"/>
  <path class="cls-2" d="M461.47,325.51c5.95,1.12,11.08-2.67,12.3-9.46,2-10.85,3.65-21.75,5.53-32.62a37.76,37.76,0,0,1,1.85-7.59c3.69-9.21,12.94-14,22.16-11.67,10.17,2.56,16.26,10.61,14.9,20.92-1.6,12.08-3.87,24.07-5.88,36.09q-4.47,26.62-9,53.23c-2.33,13.69-13.9,20.2-26.86,15.45-2.75-1-6-.92-9-1.06-6.45-.29-12.9-.4-20-.61,5.87,12.56,15.2,19.81,27.67,22.77a39.8,39.8,0,0,0,48.48-32.15c5.21-30.32,10.43-60.64,15.13-91,2.65-17.17-6.26-32.93-21.7-40.48-15.62-7.64-34.45-4.76-46.36,7.16a37.73,37.73,0,0,0-10.69,20c-2.36,12.7-4.43,25.45-6.53,38.19C452.39,319.29,455.66,324.41,461.47,325.51Z" transform="translate(-158 -243.06)"/>
  <path class="cls-2" d="M546.53,380.21q44,5.77,88,11.82c7.23,1,14.43,2.18,22.06,3.33L639.69,518.85a117.25,117.25,0,0,1,36-5.56c16.28,0,30.74,2.49,43.07,7.41-5.63-82.83-10.86-159.59-12.11-177.15-.88-12.39-4.06-14.44-16.77-13.42-21.72,1.74-43.47,3.16-65.21,4.67-26.17,1.81-52.35,3.64-78.53,5.3-4.29.27-5.82,1.84-5.68,6.2.29,9.09.39,18.22,0,27.3C540.17,378.49,542.36,379.67,546.53,380.21Z" transform="translate(-158 -243.06)"/>
  <path class="cls-2" d="M673.2,600.12c-7.64,0-10.54,3-12.37,6-3.67,6-5.53,14.82-5.53,26.26,0,29.7,6.73,36.67,8.8,38.1s4.82,2.13,8.41,2.13c4.71,0,17.21,0,17.21-35.57,0-17.54-2.84-26.57-5.23-31C682.61,602.48,680,600.12,673.2,600.12Z" transform="translate(-158 -243.06)"/>
  <path class="cls-2" d="M734.88,758.63l-1.24-18.34c-18.11,12.73-39.57,19.17-64.07,19.17-23.65,0-43.9-5.78-60.49-17.15l-8.79,64.16L189.76,742.34,245,338.78l222.11,30.4V338.83c-14.16-1.9-27.78-3.68-41.39-5.55Q330.88,320.2,236,307.1c-10.45-1.44-17.32,3.54-18.77,14-5.66,40.63-11.15,81.27-16.74,121.91q-9.86,71.63-19.77,143.26-11.25,82-22.44,164c-1.53,11.07,3.36,18.19,14.25,19.87,30.5,4.71,61,9.51,91.51,14,4.31.64,5.49,2.45,5.62,6.55.3,9.3.94,18.6,1.8,27.87.8,8.66,4.85,11.62,13.61,10.92q77.51-6.13,155-12.12c9.47-.72,19.21-2.33,28.46-1,47.06,6.85,94,14.52,141,21.94,9.22,1.46,16.39-3.12,18.24-12.35,1.2-6,1.86-12.12,2.53-18.21.41-3.76,2.06-5.38,6-5.66,28.7-2.05,57.38-4.4,86.08-6.44,12-.85,14.83-4,14-15.81C735.84,772.8,735.37,765.71,734.88,758.63Z" transform="translate(-158 -243.06)"/>
  <path class="cls-1" d="M582,636.18q0-29.12,8.66-50.58t23.22-32.87q27.94-21.26,61.8-21.26,23.62,0,40,7.68t25.59,17.71q9.24,10,15.74,29.13t6.49,45.07q0,54.32-26.37,82.27t-67.51,27.95q-41.14,0-64.36-26.57T582,636.18Zm90.53,70.46q42.9,0,42.9-69.28,0-35-9.64-53.14T673.5,566.11q-22.64,0-33.26,17.32t-10.63,47.23q0,55.5,20.47,69.67Q659.13,706.64,672.52,706.63Z" transform="translate(-158 -243.06)"/>
  <rect class="cls-2" x="1141.3" y="408.98" width="57.54" height="73.44"/>
  <path class="cls-2" d="M1566.88,690.89q-12.24-8-15.18-12t-4.35-15.06q-5.65-45.18-5.65-105.18,0-46.59,5.41-79.06,2.82-15.53,13.65-23.77,8-5.88,10.59-10t2.59-10.94q0-30.35-66.59-30.35-37.89,0-52.24,10.12-11.3,7.77-22.83,31.3-1.89,3.77-8,16.24l-33.18,64.71q-4.94,9.65-8.59,13.18a11.68,11.68,0,0,1-8.35,3.53q-5.42,0-8.47-3.29t-11.06-18.12l-48.94-90.12q-6.59-12.47-10.12-16.47a24.15,24.15,0,0,0-9.65-6.35q-12.48-4.94-42.59-4.94a234.78,234.78,0,0,0-29.3,2.24q-17.3,2.24-27.65,5.29a33.93,33.93,0,0,0-16.59,9.65q-6.24,6.83-6.24,15.06,0,12.71,16.71,20.71,7.53,3.77,10.24,6.12a20.27,20.27,0,0,1,4.82,7.06q5.88,13.65,5.88,52,0,30.59-1.88,73.53t-4,61.77q-1.67,15.59-4,22.18s54.49,53.59,54.82,53.88a20.06,20.06,0,0,0,7.83,1.59h26.11V645.65a20.31,20.31,0,0,1,20.25-20.25h143.86a20.31,20.31,0,0,1,20.25,20.25v89.72h26.87q25.88,0,38.36-1.18a106.78,106.78,0,0,0,23.76-4.94q21.88-6.82,21.88-23.3Q1575.35,696.55,1566.88,690.89Zm-57.65-197.83a3.71,3.71,0,0,1-3.71,3.71h-6.44a3.71,3.71,0,0,1-3.71-3.71V454a3.71,3.71,0,0,1,3.71-3.71h6.44a3.71,3.71,0,0,1,3.71,3.71Z" transform="translate(-158 -243.06)"/>
</svg>
