<?xml version="1.0"?>
<svg xmlns="http://www.w3.org/2000/svg" id="Layer_1" data-name="Layer 1" viewBox="0 0 705.17 726">
  <defs>
    <style>.cls-1{fill:#4b6584;}.cls-2{fill:#eb3b5a;}</style>
  </defs>
  <title>favbicon</title>
  <path class="cls-1" d="M977.34,277.51c7.25,1.37,13.51-3.26,15-11.53,2.38-13.23,4.45-26.52,6.74-39.76a46,46,0,0,1,2.26-9.25c4.49-11.23,15.78-17.05,27-14.22,12.4,3.12,19.82,12.94,18.16,25.5-1.95,14.72-4.71,29.34-7.17,44q-5.44,32.45-11,64.89c-2.84,16.69-16.95,24.62-32.74,18.83-3.35-1.23-7.26-1.12-10.92-1.29-7.86-.36-15.73-.49-24.43-.74,7.16,15.32,18.53,24.15,33.73,27.75a48.51,48.51,0,0,0,59.1-39.19c6.35-37,12.72-73.92,18.45-111,3.24-20.93-7.63-40.14-26.45-49.34-19-9.31-42-5.8-56.51,8.73a46,46,0,0,0-13,24.43c-2.87,15.48-5.4,31-8,46.55C966.27,269.93,970.26,276.17,977.34,277.51Z" transform="translate(-607.41 -177)"/>
  <path class="cls-1" d="M1312.42,831.39c-.62-8.64-1.2-17.28-1.8-25.92,0,0-30.83-455.29-34.44-506-1.07-15.11-4.95-17.6-20.44-16.36-26.48,2.12-53,3.86-79.49,5.69-31.91,2.21-63.81,4.44-95.73,6.45-5.24.33-7.09,2.25-6.92,7.56.35,11.08.47,22.21,0,33.28-.28,6,2.38,7.4,7.48,8.07q53.66,7,107.28,14.4c8.81,1.2,17.59,2.65,26.89,4.06l-68.65,501.12L646.13,785.61l67.39-491.94,270.75,37.06v-37c-17.26-2.31-33.87-4.48-50.46-6.77Q818.16,271,702.5,255.06c-12.74-1.75-21.11,4.31-22.88,17.05-6.9,49.52-13.59,99.07-20.41,148.6q-12,87.32-24.11,174.63-13.72,100-27.36,199.94c-1.86,13.5,4.09,22.17,17.37,24.22,37.18,5.74,74.34,11.59,111.56,17.11,5.25.78,6.69,3,6.85,8,.37,11.34,1.14,22.67,2.19,34,1,10.56,5.92,14.16,16.59,13.32q94.48-7.47,189-14.77c11.55-.88,23.42-2.84,34.69-1.2,57.37,8.35,114.59,17.7,171.86,26.75,11.24,1.78,20-3.8,22.23-15.05,1.47-7.31,2.26-14.77,3.08-22.2.5-4.58,2.51-6.56,7.3-6.9,35-2.5,69.94-5.36,104.93-7.85C1310,849.63,1313.45,845.74,1312.42,831.39Z" transform="translate(-607.41 -177)"/>
  <path class="cls-2" d="M747.31,724.52l5.59-37.68,17,1.09q12.23.87,14-11.23L816,460.38,789.66,455l5.87-39.54,83.74,12.42L979.24,661l.93.14,25.6-172.59-30.5-5.95L981.14,443l113.51,16.84-5.59,37.68-17-1.09q-11.3-.72-13.3,12.77l-38,255.86L966.42,757,864.13,520.29l-.93-.14L837.12,696l30,5.88-5.87,39.54Z" transform="translate(-607.41 -177)"/>
</svg>
